G04 #@! TF.FileFunction,Copper,L1,Top,Signal*
%FSLAX46Y46*%
G04 Gerber Fmt 4.6, Leading zero omitted, Abs format (unit mm)*
G04 Created by KiCad (PCBNEW 4.0.0-rc2-stable) date 2016-09-06 13:17:37*
%MOMM*%
G01*
G04 APERTURE LIST*
%ADD10C,0.100000*%
%ADD11C,0.180000*%
%ADD12R,1.700000X1.600000*%
%ADD13R,2.200000X2.500000*%
%ADD14R,0.750000X0.800000*%
%ADD15R,0.500000X0.900000*%
%ADD16R,0.900000X0.500000*%
%ADD17R,1.000000X1.250000*%
%ADD18R,1.250000X1.000000*%
%ADD19C,1.300000*%
%ADD20C,1.100000*%
%ADD21R,1.000000X0.750000*%
%ADD22R,3.000000X3.000000*%
%ADD23R,1.150000X0.700000*%
%ADD24R,3.100000X4.200000*%
%ADD25R,1.500000X4.700000*%
%ADD26R,0.700000X1.150000*%
%ADD27R,4.200000X3.100000*%
%ADD28R,4.700000X1.500000*%
%ADD29R,0.600000X0.900000*%
%ADD30R,0.600000X1.520000*%
%ADD31R,1.500000X2.500000*%
%ADD32R,1.400000X2.100000*%
%ADD33R,0.700000X1.300000*%
%ADD34C,1.000000*%
%ADD35C,0.500000*%
%ADD36C,0.600000*%
%ADD37C,0.400000*%
%ADD38C,0.700000*%
G04 APERTURE END LIST*
D10*
D11*
X157202381Y-91094048D02*
X156202381Y-90969048D01*
X156202381Y-90664286D01*
X156250000Y-90594047D01*
X156297619Y-90561904D01*
X156392857Y-90535714D01*
X156535714Y-90553571D01*
X156630952Y-90603571D01*
X156678571Y-90647618D01*
X156726190Y-90729762D01*
X156726190Y-91034524D01*
X156678571Y-90228571D02*
X156678571Y-89961904D01*
X157202381Y-89913095D02*
X157202381Y-90294048D01*
X156202381Y-90169048D01*
X156202381Y-89788095D01*
X157202381Y-89113095D02*
X156726190Y-89320238D01*
X157202381Y-89570238D02*
X156202381Y-89445238D01*
X156202381Y-89140476D01*
X156250000Y-89070237D01*
X156297619Y-89038094D01*
X156392857Y-89011904D01*
X156535714Y-89029761D01*
X156630952Y-89079761D01*
X156678571Y-89123808D01*
X156726190Y-89205952D01*
X156726190Y-89510714D01*
X156202381Y-88645238D02*
X157011905Y-88746428D01*
X157107143Y-88720238D01*
X157154762Y-88688094D01*
X157202381Y-88617857D01*
X157202381Y-88465476D01*
X157154762Y-88383332D01*
X157107143Y-88339285D01*
X157011905Y-88289285D01*
X156202381Y-88188095D01*
X157202381Y-87932143D02*
X156202381Y-87807143D01*
X157202381Y-87475000D01*
X156202381Y-87350000D01*
X156535714Y-86477380D02*
X157202381Y-86370238D01*
X156535714Y-86096428D01*
X156297619Y-85799999D02*
X156250000Y-85755952D01*
X156202381Y-85673809D01*
X156202381Y-85483333D01*
X156250000Y-85413095D01*
X156297619Y-85380951D01*
X156392857Y-85354761D01*
X156488095Y-85366666D01*
X156630952Y-85422618D01*
X157202381Y-85951190D01*
X157202381Y-85455952D01*
D12*
X110350000Y-82750000D03*
X117650000Y-82750000D03*
D13*
X115950000Y-86300000D03*
X112050000Y-86300000D03*
D10*
G36*
X157301992Y-84053338D02*
X156771662Y-83523008D01*
X157337348Y-82957322D01*
X157867678Y-83487652D01*
X157301992Y-84053338D01*
X157301992Y-84053338D01*
G37*
G36*
X158362652Y-82992678D02*
X157832322Y-82462348D01*
X158398008Y-81896662D01*
X158928338Y-82426992D01*
X158362652Y-82992678D01*
X158362652Y-82992678D01*
G37*
D14*
X121000000Y-86250000D03*
X121000000Y-84750000D03*
D15*
X144250000Y-80250000D03*
X145750000Y-80250000D03*
D16*
X149250000Y-90250000D03*
X149250000Y-88750000D03*
D17*
X145500000Y-78250000D03*
X147500000Y-78250000D03*
D18*
X142500000Y-74250000D03*
X142500000Y-76250000D03*
D10*
G36*
X115350000Y-77050000D02*
X115350000Y-76050000D01*
X116350000Y-76050000D01*
X116350000Y-77050000D01*
X115350000Y-77050000D01*
X115350000Y-77050000D01*
G37*
G36*
X115350000Y-73050000D02*
X115350000Y-72050000D01*
X116350000Y-72050000D01*
X116350000Y-73050000D01*
X115350000Y-73050000D01*
X115350000Y-73050000D01*
G37*
G36*
X111350000Y-77050000D02*
X111350000Y-76050000D01*
X112350000Y-76050000D01*
X112350000Y-77050000D01*
X111350000Y-77050000D01*
X111350000Y-77050000D01*
G37*
G36*
X111350000Y-73050000D02*
X111350000Y-72050000D01*
X112350000Y-72050000D01*
X112350000Y-73050000D01*
X111350000Y-73050000D01*
X111350000Y-73050000D01*
G37*
D19*
X162725000Y-86975000D03*
D20*
X164500000Y-88750000D03*
D19*
X114000000Y-84050000D03*
D21*
X111850000Y-78175000D03*
X131500000Y-71375000D03*
X111850000Y-68925000D03*
X151500000Y-80625000D03*
X115850000Y-68925000D03*
X125325000Y-78100000D03*
X151500000Y-71375000D03*
X115850000Y-78175000D03*
X121325000Y-78100000D03*
D20*
X114000000Y-81550000D03*
D22*
X144500000Y-92500000D03*
X133250000Y-90000000D03*
X150000000Y-84500000D03*
D10*
G36*
X151000000Y-75500000D02*
X151000000Y-74500000D01*
X152000000Y-74500000D01*
X152000000Y-75500000D01*
X151000000Y-75500000D01*
X151000000Y-75500000D01*
G37*
G36*
X151000000Y-77500000D02*
X151000000Y-76500000D01*
X152000000Y-76500000D01*
X152000000Y-77500000D01*
X151000000Y-77500000D01*
X151000000Y-77500000D01*
G37*
G36*
X151000000Y-73500000D02*
X151000000Y-72500000D01*
X152000000Y-72500000D01*
X152000000Y-73500000D01*
X151000000Y-73500000D01*
X151000000Y-73500000D01*
G37*
G36*
X151000000Y-79500000D02*
X151000000Y-78500000D01*
X152000000Y-78500000D01*
X152000000Y-79500000D01*
X151000000Y-79500000D01*
X151000000Y-79500000D01*
G37*
G36*
X131000000Y-79500000D02*
X131000000Y-78500000D01*
X132000000Y-78500000D01*
X132000000Y-79500000D01*
X131000000Y-79500000D01*
X131000000Y-79500000D01*
G37*
G36*
X131000000Y-77500000D02*
X131000000Y-76500000D01*
X132000000Y-76500000D01*
X132000000Y-77500000D01*
X131000000Y-77500000D01*
X131000000Y-77500000D01*
G37*
G36*
X131000000Y-75500000D02*
X131000000Y-74500000D01*
X132000000Y-74500000D01*
X132000000Y-75500000D01*
X131000000Y-75500000D01*
X131000000Y-75500000D01*
G37*
G36*
X131000000Y-73500000D02*
X131000000Y-72500000D01*
X132000000Y-72500000D01*
X132000000Y-73500000D01*
X131000000Y-73500000D01*
X131000000Y-73500000D01*
G37*
G36*
X115350000Y-75050000D02*
X115350000Y-74050000D01*
X116350000Y-74050000D01*
X116350000Y-75050000D01*
X115350000Y-75050000D01*
X115350000Y-75050000D01*
G37*
G36*
X115350000Y-77050000D02*
X115350000Y-76050000D01*
X116350000Y-76050000D01*
X116350000Y-77050000D01*
X115350000Y-77050000D01*
X115350000Y-77050000D01*
G37*
G36*
X111350000Y-71050000D02*
X111350000Y-70050000D01*
X112350000Y-70050000D01*
X112350000Y-71050000D01*
X111350000Y-71050000D01*
X111350000Y-71050000D01*
G37*
G36*
X115350000Y-73050000D02*
X115350000Y-72050000D01*
X116350000Y-72050000D01*
X116350000Y-73050000D01*
X115350000Y-73050000D01*
X115350000Y-73050000D01*
G37*
G36*
X111350000Y-75050000D02*
X111350000Y-74050000D01*
X112350000Y-74050000D01*
X112350000Y-75050000D01*
X111350000Y-75050000D01*
X111350000Y-75050000D01*
G37*
G36*
X111350000Y-77050000D02*
X111350000Y-76050000D01*
X112350000Y-76050000D01*
X112350000Y-77050000D01*
X111350000Y-77050000D01*
X111350000Y-77050000D01*
G37*
G36*
X115350000Y-71050000D02*
X115350000Y-70050000D01*
X116350000Y-70050000D01*
X116350000Y-71050000D01*
X115350000Y-71050000D01*
X115350000Y-71050000D01*
G37*
G36*
X111350000Y-73050000D02*
X111350000Y-72050000D01*
X112350000Y-72050000D01*
X112350000Y-73050000D01*
X111350000Y-73050000D01*
X111350000Y-73050000D01*
G37*
G36*
X121825000Y-75975000D02*
X121825000Y-76975000D01*
X120825000Y-76975000D01*
X120825000Y-75975000D01*
X121825000Y-75975000D01*
X121825000Y-75975000D01*
G37*
G36*
X121825000Y-73975000D02*
X121825000Y-74975000D01*
X120825000Y-74975000D01*
X120825000Y-73975000D01*
X121825000Y-73975000D01*
X121825000Y-73975000D01*
G37*
G36*
X121825000Y-69975000D02*
X121825000Y-70975000D01*
X120825000Y-70975000D01*
X120825000Y-69975000D01*
X121825000Y-69975000D01*
X121825000Y-69975000D01*
G37*
G36*
X125825000Y-71975000D02*
X125825000Y-72975000D01*
X124825000Y-72975000D01*
X124825000Y-71975000D01*
X125825000Y-71975000D01*
X125825000Y-71975000D01*
G37*
G36*
X125825000Y-73975000D02*
X125825000Y-74975000D01*
X124825000Y-74975000D01*
X124825000Y-73975000D01*
X125825000Y-73975000D01*
X125825000Y-73975000D01*
G37*
G36*
X125825000Y-75975000D02*
X125825000Y-76975000D01*
X124825000Y-76975000D01*
X124825000Y-75975000D01*
X125825000Y-75975000D01*
X125825000Y-75975000D01*
G37*
G36*
X121825000Y-71975000D02*
X121825000Y-72975000D01*
X120825000Y-72975000D01*
X120825000Y-71975000D01*
X121825000Y-71975000D01*
X121825000Y-71975000D01*
G37*
G36*
X125825000Y-69975000D02*
X125825000Y-70975000D01*
X124825000Y-70975000D01*
X124825000Y-69975000D01*
X125825000Y-69975000D01*
X125825000Y-69975000D01*
G37*
D23*
X141975000Y-81615000D03*
X141975000Y-82885000D03*
X141975000Y-80345000D03*
X141975000Y-84155000D03*
D24*
X138800000Y-82250000D03*
D25*
X136500000Y-82250000D03*
D26*
X146135000Y-90225000D03*
X144865000Y-90225000D03*
X147405000Y-90225000D03*
X143595000Y-90225000D03*
D27*
X145500000Y-87050000D03*
D28*
X145500000Y-84750000D03*
D10*
G36*
X166266295Y-84152334D02*
X167397666Y-85283705D01*
X166195585Y-86485786D01*
X165064214Y-85354415D01*
X166266295Y-84152334D01*
X166266295Y-84152334D01*
G37*
G36*
X161104415Y-89314214D02*
X162235786Y-90445585D01*
X161033705Y-91647666D01*
X159902334Y-90516295D01*
X161104415Y-89314214D01*
X161104415Y-89314214D01*
G37*
G36*
X159654847Y-85106928D02*
X161422614Y-86874695D01*
X159866979Y-88430330D01*
X158099212Y-86662563D01*
X159654847Y-85106928D01*
X159654847Y-85106928D01*
G37*
G36*
X162412563Y-82349212D02*
X164180330Y-84116979D01*
X162624695Y-85672614D01*
X160856928Y-83904847D01*
X162412563Y-82349212D01*
X162412563Y-82349212D01*
G37*
D29*
X136500000Y-76950000D03*
X137450000Y-76950000D03*
X135550000Y-76950000D03*
X135550000Y-74550000D03*
X137500000Y-74550000D03*
D30*
X144095000Y-76240000D03*
X145365000Y-76240000D03*
X146635000Y-76240000D03*
X147905000Y-76240000D03*
X147905000Y-70760000D03*
X146635000Y-70760000D03*
X145365000Y-70760000D03*
X144095000Y-70760000D03*
D10*
G36*
X115350000Y-77050000D02*
X115350000Y-76050000D01*
X116350000Y-76050000D01*
X116350000Y-77050000D01*
X115350000Y-77050000D01*
X115350000Y-77050000D01*
G37*
G36*
X115350000Y-73050000D02*
X115350000Y-72050000D01*
X116350000Y-72050000D01*
X116350000Y-73050000D01*
X115350000Y-73050000D01*
X115350000Y-73050000D01*
G37*
G36*
X111350000Y-77050000D02*
X111350000Y-76050000D01*
X112350000Y-76050000D01*
X112350000Y-77050000D01*
X111350000Y-77050000D01*
X111350000Y-77050000D01*
G37*
G36*
X111350000Y-73050000D02*
X111350000Y-72050000D01*
X112350000Y-72050000D01*
X112350000Y-73050000D01*
X111350000Y-73050000D01*
X111350000Y-73050000D01*
G37*
D31*
X137700000Y-94000000D03*
X142300000Y-94000000D03*
D32*
X141850000Y-86500000D03*
X136650000Y-86500000D03*
X141100000Y-90000000D03*
X135900000Y-90000000D03*
D10*
G36*
X115350000Y-77050000D02*
X115350000Y-76050000D01*
X116350000Y-76050000D01*
X116350000Y-77050000D01*
X115350000Y-77050000D01*
X115350000Y-77050000D01*
G37*
G36*
X115350000Y-73050000D02*
X115350000Y-72050000D01*
X116350000Y-72050000D01*
X116350000Y-73050000D01*
X115350000Y-73050000D01*
X115350000Y-73050000D01*
G37*
G36*
X111350000Y-77050000D02*
X111350000Y-76050000D01*
X112350000Y-76050000D01*
X112350000Y-77050000D01*
X111350000Y-77050000D01*
X111350000Y-77050000D01*
G37*
G36*
X111350000Y-73050000D02*
X111350000Y-72050000D01*
X112350000Y-72050000D01*
X112350000Y-73050000D01*
X111350000Y-73050000D01*
X111350000Y-73050000D01*
G37*
D33*
X121700000Y-82750000D03*
X119800000Y-82750000D03*
D10*
G36*
X159071142Y-81240381D02*
X159990381Y-80321142D01*
X160485356Y-80816117D01*
X159566117Y-81735356D01*
X159071142Y-81240381D01*
X159071142Y-81240381D01*
G37*
G36*
X160414644Y-82583883D02*
X161333883Y-81664644D01*
X161828858Y-82159619D01*
X160909619Y-83078858D01*
X160414644Y-82583883D01*
X160414644Y-82583883D01*
G37*
D34*
X131500000Y-82250000D03*
X140500000Y-93750000D03*
X130250000Y-86250000D03*
X149250000Y-78000000D03*
X149500000Y-76000000D03*
X139000000Y-74500000D03*
X158812500Y-79987500D03*
X160950000Y-79800000D03*
X159450000Y-75200000D03*
X163925000Y-81625000D03*
X157325000Y-75825000D03*
X163950000Y-79625000D03*
X143750000Y-72750000D03*
X151750000Y-88750000D03*
D35*
X131500000Y-79000000D02*
X131500000Y-82250000D01*
X121700000Y-82750000D02*
X125000000Y-82750000D01*
X125500000Y-82250000D02*
X131500000Y-82250000D01*
X125000000Y-82750000D02*
X125500000Y-82250000D01*
X142300000Y-94000000D02*
X140750000Y-94000000D01*
X140750000Y-94000000D02*
X140500000Y-93750000D01*
X121000000Y-84750000D02*
X121000000Y-84000000D01*
X121000000Y-84000000D02*
X121700000Y-83300000D01*
X121700000Y-83300000D02*
X121700000Y-82750000D01*
X144500000Y-93750000D02*
X144500000Y-92500000D01*
X136500000Y-75750000D02*
X140250000Y-75750000D01*
X141750000Y-74250000D02*
X142500000Y-74250000D01*
X140250000Y-75750000D02*
X141750000Y-74250000D01*
X131500000Y-77000000D02*
X133500000Y-77000000D01*
X134750000Y-75750000D02*
X136500000Y-75750000D01*
X133500000Y-77000000D02*
X134750000Y-75750000D01*
X136500000Y-76950000D02*
X136500000Y-75750000D01*
X142500000Y-74250000D02*
X144000000Y-74250000D01*
X144000000Y-74250000D02*
X145365000Y-72885000D01*
X145365000Y-72885000D02*
X145365000Y-70760000D01*
X131500000Y-79000000D02*
X131500000Y-77000000D01*
D36*
X142300000Y-94000000D02*
X142750000Y-94000000D01*
X142750000Y-94000000D02*
X143200000Y-94450000D01*
X143200000Y-94450000D02*
X144800000Y-94450000D01*
X142300000Y-94000000D02*
X145050000Y-94000000D01*
X145050000Y-94000000D02*
X145375000Y-94325000D01*
X142300000Y-94000000D02*
X142300000Y-94200000D01*
X142300000Y-94200000D02*
X143050000Y-94950000D01*
X143050000Y-94950000D02*
X144750000Y-94950000D01*
X144750000Y-94950000D02*
X145375000Y-94325000D01*
X145375000Y-94325000D02*
X145700000Y-94000000D01*
X145700000Y-94000000D02*
X144500000Y-92500000D01*
X142300000Y-94000000D02*
X143000000Y-94000000D01*
X143000000Y-94000000D02*
X144500000Y-92500000D01*
X144500000Y-92500000D02*
X144500000Y-91250000D01*
X144500000Y-91250000D02*
X143950000Y-90700000D01*
X144500000Y-92500000D02*
X144500000Y-90700000D01*
X144500000Y-90700000D02*
X144400000Y-90600000D01*
X144500000Y-92500000D02*
X144500000Y-91350000D01*
X144500000Y-91350000D02*
X145250000Y-90600000D01*
X146135000Y-90225000D02*
X146075000Y-90225000D01*
X146075000Y-90225000D02*
X145350000Y-90950000D01*
X144865000Y-90225000D02*
X146135000Y-90225000D01*
X143595000Y-90225000D02*
X144865000Y-90225000D01*
X146135000Y-90225000D02*
X146135000Y-90865000D01*
X146135000Y-90865000D02*
X144500000Y-92500000D01*
X144865000Y-90225000D02*
X144865000Y-92135000D01*
X144865000Y-92135000D02*
X144500000Y-92500000D01*
X143595000Y-90225000D02*
X143595000Y-91595000D01*
X143595000Y-91595000D02*
X144500000Y-92500000D01*
D37*
X121000000Y-86250000D02*
X130250000Y-86250000D01*
X150250000Y-78000000D02*
X151250000Y-79000000D01*
X149250000Y-78000000D02*
X150250000Y-78000000D01*
X151250000Y-79000000D02*
X151500000Y-79000000D01*
X151500000Y-78750000D02*
X151500000Y-79000000D01*
X151500000Y-79000000D02*
X151500000Y-78750000D01*
D35*
X112050000Y-86300000D02*
X112050000Y-88050000D01*
X112050000Y-88050000D02*
X112750000Y-88750000D01*
X112750000Y-88750000D02*
X118000000Y-88750000D01*
X118000000Y-88750000D02*
X120500000Y-86250000D01*
X120500000Y-86250000D02*
X121000000Y-86250000D01*
D37*
X150500000Y-77000000D02*
X151500000Y-77000000D01*
X149500000Y-76000000D02*
X150500000Y-77000000D01*
D35*
X131500000Y-75000000D02*
X133000000Y-75000000D01*
X133450000Y-74550000D02*
X135550000Y-74550000D01*
X133000000Y-75000000D02*
X133450000Y-74550000D01*
D37*
X135550000Y-74550000D02*
X135550000Y-73450000D01*
X135550000Y-73450000D02*
X135750000Y-73250000D01*
X135750000Y-73250000D02*
X138750000Y-73250000D01*
X138750000Y-73250000D02*
X139000000Y-73500000D01*
X139000000Y-73500000D02*
X139000000Y-74500000D01*
D35*
X131500000Y-75000000D02*
X131500000Y-73000000D01*
D38*
X136250000Y-88950000D02*
X136250000Y-88300000D01*
X136250000Y-88300000D02*
X137000000Y-87550000D01*
D35*
X135550000Y-76950000D02*
X135550000Y-78050000D01*
X135700000Y-78200000D02*
X137450000Y-78200000D01*
X135550000Y-78050000D02*
X135700000Y-78200000D01*
X138800000Y-79050000D02*
X138800000Y-78950000D01*
X141500000Y-76250000D02*
X142500000Y-76250000D01*
X138800000Y-78950000D02*
X141500000Y-76250000D01*
X138800000Y-82250000D02*
X138800000Y-79050000D01*
X137950000Y-78200000D02*
X137450000Y-78200000D01*
X138800000Y-79050000D02*
X137950000Y-78200000D01*
X137450000Y-78200000D02*
X137450000Y-76950000D01*
X142500000Y-76250000D02*
X144085000Y-76250000D01*
X144085000Y-76250000D02*
X144095000Y-76240000D01*
D38*
X136500000Y-82250000D02*
X138800000Y-82250000D01*
X136650000Y-86500000D02*
X136650000Y-85800000D01*
X136650000Y-85800000D02*
X137000000Y-85450000D01*
X137000000Y-85450000D02*
X137000000Y-84850000D01*
X137000000Y-84850000D02*
X136750000Y-84600000D01*
X136750000Y-84600000D02*
X136500000Y-82250000D01*
X136650000Y-85800000D02*
X136300000Y-85450000D01*
X136300000Y-85450000D02*
X136300000Y-84800000D01*
X136300000Y-84800000D02*
X136100000Y-84600000D01*
X136100000Y-84600000D02*
X136500000Y-82250000D01*
X133250000Y-90000000D02*
X133600000Y-90000000D01*
X133600000Y-90000000D02*
X134750000Y-88850000D01*
X134750000Y-88850000D02*
X135850000Y-88850000D01*
X135850000Y-88850000D02*
X135900000Y-88800000D01*
X135900000Y-90000000D02*
X135900000Y-88800000D01*
X135900000Y-88800000D02*
X135850000Y-88750000D01*
X136300000Y-87550000D02*
X136300000Y-87700000D01*
X136300000Y-87700000D02*
X134750000Y-89250000D01*
X134750000Y-89250000D02*
X134750000Y-89400000D01*
X134750000Y-89400000D02*
X133250000Y-90000000D01*
X135900000Y-90000000D02*
X135900000Y-89300000D01*
X135900000Y-89300000D02*
X136250000Y-88950000D01*
X137000000Y-87550000D02*
X136650000Y-86500000D01*
X135900000Y-90000000D02*
X135900000Y-90550000D01*
X135900000Y-90550000D02*
X135300000Y-91150000D01*
X135300000Y-91150000D02*
X135700000Y-91150000D01*
X135700000Y-91150000D02*
X137300000Y-92750000D01*
X137300000Y-92750000D02*
X137700000Y-94000000D01*
X137700000Y-94000000D02*
X137700000Y-93150000D01*
X137700000Y-93150000D02*
X137300000Y-92750000D01*
X137300000Y-92750000D02*
X137700000Y-94000000D01*
X137800000Y-92750000D02*
X136100000Y-91050000D01*
X136100000Y-91050000D02*
X135900000Y-90000000D01*
X134900000Y-90150000D02*
X133400000Y-90150000D01*
X133400000Y-90150000D02*
X133250000Y-90000000D01*
X134900000Y-90700000D02*
X134900000Y-90150000D01*
X135600000Y-90000000D02*
X134900000Y-90700000D01*
X134900000Y-90150000D02*
X134750000Y-90000000D01*
X134750000Y-90000000D02*
X133250000Y-90000000D01*
X135900000Y-90000000D02*
X135600000Y-90000000D01*
X135900000Y-90000000D02*
X135350000Y-90000000D01*
X135350000Y-90000000D02*
X134750000Y-89400000D01*
X134750000Y-89400000D02*
X133250000Y-90000000D01*
X133600000Y-90000000D02*
X134750000Y-88850000D01*
X134750000Y-88850000D02*
X135900000Y-90000000D01*
X133600000Y-90000000D02*
X134750000Y-91150000D01*
X134750000Y-91150000D02*
X135300000Y-91150000D01*
X135300000Y-91150000D02*
X135900000Y-90550000D01*
D35*
X144250000Y-80250000D02*
X143000000Y-80250000D01*
X142905000Y-80345000D02*
X141975000Y-80345000D01*
X143000000Y-80250000D02*
X142905000Y-80345000D01*
X149250000Y-90250000D02*
X147430000Y-90250000D01*
X147430000Y-90250000D02*
X147405000Y-90225000D01*
X117650000Y-82750000D02*
X119800000Y-82750000D01*
X115950000Y-86300000D02*
X116950000Y-86300000D01*
X116950000Y-86300000D02*
X117650000Y-85600000D01*
X117650000Y-85600000D02*
X117650000Y-82750000D01*
X110350000Y-82750000D02*
X117650000Y-82750000D01*
D37*
X162518629Y-84010913D02*
X162518629Y-83768629D01*
X162518629Y-83768629D02*
X161121751Y-82371751D01*
D35*
X166230940Y-85319060D02*
X166230940Y-85280940D01*
X166230940Y-85280940D02*
X164350000Y-83400000D01*
X164350000Y-83400000D02*
X163129542Y-83400000D01*
X163129542Y-83400000D02*
X162518629Y-84010913D01*
X161069060Y-90480940D02*
X166230940Y-85319060D01*
D37*
X162543629Y-83835913D02*
X162543629Y-83693629D01*
X166255940Y-85144060D02*
X166255940Y-85105940D01*
X156700000Y-82885660D02*
X157319670Y-83505330D01*
X156700000Y-80450000D02*
X156700000Y-82885660D01*
X157200000Y-79950000D02*
X156700000Y-80450000D01*
X158775000Y-79950000D02*
X157200000Y-79950000D01*
X158812500Y-79987500D02*
X158775000Y-79950000D01*
X157319670Y-83505330D02*
X157319670Y-83494670D01*
X159785913Y-86593629D02*
X159785913Y-85971573D01*
X159785913Y-85971573D02*
X157319670Y-83505330D01*
X159785913Y-86593629D02*
X159785913Y-86585913D01*
X160950000Y-79800000D02*
X159778249Y-80971751D01*
X159778249Y-80971751D02*
X159778249Y-81028249D01*
X158380330Y-82444670D02*
X158380330Y-82426168D01*
X158380330Y-82426168D02*
X159778249Y-81028249D01*
X159844670Y-80994670D02*
X159855330Y-80994670D01*
X159844670Y-80994670D02*
X159844670Y-80955330D01*
X159844670Y-80994670D02*
X159844670Y-80980330D01*
X159844670Y-80994670D02*
X159830330Y-80994670D01*
D35*
X145500000Y-78250000D02*
X145500000Y-77750000D01*
X145500000Y-77750000D02*
X145365000Y-77615000D01*
X145365000Y-77615000D02*
X145365000Y-76240000D01*
X145500000Y-84750000D02*
X146350000Y-83900000D01*
X147500000Y-81000000D02*
X147500000Y-78250000D01*
X146350000Y-82150000D02*
X147500000Y-81000000D01*
X146350000Y-83900000D02*
X146350000Y-82150000D01*
X150000000Y-84500000D02*
X145750000Y-84500000D01*
X145750000Y-84500000D02*
X145500000Y-84750000D01*
X150000000Y-84500000D02*
X148050000Y-84500000D01*
X148050000Y-84500000D02*
X145500000Y-87050000D01*
X150000000Y-84500000D02*
X148850000Y-84500000D01*
X148850000Y-84500000D02*
X147900000Y-85450000D01*
X148050000Y-84500000D02*
X145500000Y-87050000D01*
X148850000Y-84500000D02*
X147900000Y-85450000D01*
X148050000Y-84500000D02*
X145500000Y-87050000D01*
X145500000Y-84750000D02*
X147200000Y-84750000D01*
X147200000Y-84750000D02*
X147900000Y-85450000D01*
X148850000Y-84500000D02*
X146300000Y-87050000D01*
X146300000Y-87050000D02*
X145500000Y-87050000D01*
X148050000Y-84500000D02*
X145500000Y-87050000D01*
X145750000Y-84750000D02*
X145500000Y-84750000D01*
X147500000Y-78250000D02*
X147500000Y-77750000D01*
X147500000Y-77750000D02*
X147905000Y-77345000D01*
X147905000Y-77345000D02*
X147905000Y-76240000D01*
D38*
X145500000Y-87050000D02*
X145500000Y-84750000D01*
X141850000Y-86500000D02*
X141850000Y-87200000D01*
X141850000Y-87200000D02*
X140750000Y-88300000D01*
X140750000Y-88300000D02*
X140750000Y-88950000D01*
X140750000Y-88950000D02*
X141100000Y-90000000D01*
X141100000Y-90000000D02*
X141100000Y-89300000D01*
X141100000Y-89300000D02*
X140750000Y-88950000D01*
X140750000Y-88950000D02*
X141100000Y-90000000D01*
X141100000Y-90000000D02*
X141450000Y-89650000D01*
X141450000Y-89650000D02*
X141450000Y-88800000D01*
X141450000Y-88800000D02*
X143150000Y-87100000D01*
X143150000Y-87100000D02*
X143150000Y-87050000D01*
X141100000Y-90000000D02*
X141100000Y-88750000D01*
X141100000Y-88750000D02*
X142250000Y-87600000D01*
X142600000Y-86500000D02*
X142600000Y-86000000D01*
X142750000Y-85850000D02*
X142750000Y-85400000D01*
X142600000Y-86000000D02*
X142750000Y-85850000D01*
X141850000Y-86500000D02*
X142600000Y-86500000D01*
X143150000Y-85950000D02*
X143300000Y-85800000D01*
X143150000Y-87050000D02*
X143150000Y-85950000D01*
X142600000Y-86500000D02*
X143150000Y-87050000D01*
X141850000Y-86500000D02*
X143200000Y-86500000D01*
X143200000Y-86500000D02*
X143400000Y-86700000D01*
X143400000Y-86700000D02*
X145500000Y-87050000D01*
X141850000Y-86500000D02*
X142550000Y-87200000D01*
X142550000Y-87200000D02*
X145350000Y-87200000D01*
X145350000Y-87200000D02*
X145500000Y-87050000D01*
X141850000Y-86500000D02*
X141850000Y-86300000D01*
X141850000Y-86300000D02*
X142750000Y-85400000D01*
X142750000Y-85400000D02*
X143050000Y-85100000D01*
X143050000Y-85100000D02*
X143050000Y-84950000D01*
X142300000Y-85100000D02*
X142300000Y-84550000D01*
X141850000Y-86500000D02*
X141850000Y-85550000D01*
X141850000Y-85550000D02*
X142300000Y-85100000D01*
X142300000Y-85100000D02*
X142850000Y-84550000D01*
X141850000Y-86500000D02*
X141850000Y-86150000D01*
X141850000Y-86150000D02*
X143050000Y-84950000D01*
X143050000Y-84950000D02*
X143250000Y-84750000D01*
X143250000Y-84750000D02*
X145500000Y-84750000D01*
X141850000Y-86500000D02*
X141850000Y-84280000D01*
X141850000Y-84280000D02*
X141975000Y-84155000D01*
X147600000Y-83900000D02*
X145500000Y-83900000D01*
X141975000Y-84155000D02*
X142095000Y-84155000D01*
X142095000Y-84155000D02*
X142500000Y-83750000D01*
X142500000Y-83750000D02*
X144850000Y-83750000D01*
X143315000Y-81615000D02*
X143315000Y-81715000D01*
X143315000Y-81715000D02*
X145500000Y-83900000D01*
X145500000Y-83900000D02*
X145500000Y-84750000D01*
X143200000Y-81730000D02*
X143200000Y-82885000D01*
X141975000Y-82885000D02*
X141975000Y-81615000D01*
X141975000Y-81615000D02*
X143315000Y-81615000D01*
X143315000Y-81615000D02*
X143200000Y-81730000D01*
X143200000Y-81730000D02*
X143200000Y-82300000D01*
X141975000Y-82300000D02*
X143200000Y-82300000D01*
X143200000Y-82300000D02*
X143230000Y-82300000D01*
X143230000Y-82300000D02*
X143815000Y-82885000D01*
X141975000Y-82885000D02*
X143200000Y-82885000D01*
X143200000Y-82885000D02*
X143815000Y-82885000D01*
X143815000Y-82885000D02*
X143900000Y-82800000D01*
X141975000Y-84155000D02*
X141975000Y-83625000D01*
X142350000Y-83250000D02*
X144450000Y-83250000D01*
X141975000Y-83625000D02*
X142350000Y-83250000D01*
X141975000Y-84155000D02*
X141975000Y-84025000D01*
X141975000Y-81615000D02*
X143315000Y-81615000D01*
X141975000Y-82885000D02*
X141975000Y-82300000D01*
X141975000Y-82300000D02*
X141975000Y-81615000D01*
X141975000Y-82885000D02*
X141975000Y-84155000D01*
X141975000Y-84155000D02*
X144905000Y-84155000D01*
X144905000Y-84155000D02*
X145500000Y-84750000D01*
D36*
X147900000Y-85450000D02*
X147900000Y-84350000D01*
X148300000Y-83950000D02*
X147900000Y-84350000D01*
X148300000Y-83750000D02*
X149050000Y-84500000D01*
X148300000Y-83750000D02*
X148300000Y-83950000D01*
X147900000Y-85450000D02*
X147900000Y-85150000D01*
X147900000Y-85150000D02*
X147900000Y-85450000D01*
X150000000Y-84500000D02*
X149050000Y-84500000D01*
X145500000Y-84750000D02*
X148100000Y-84750000D01*
X148100000Y-84750000D02*
X148450000Y-84400000D01*
X148450000Y-84400000D02*
X148450000Y-84100000D01*
X148850000Y-84500000D02*
X147900000Y-85450000D01*
X147900000Y-85450000D02*
X147650000Y-85700000D01*
X150000000Y-84500000D02*
X149700000Y-84500000D01*
X149700000Y-84500000D02*
X148500000Y-85700000D01*
X148500000Y-85700000D02*
X147650000Y-85700000D01*
X147650000Y-85700000D02*
X146850000Y-85700000D01*
X146850000Y-85700000D02*
X145500000Y-87050000D01*
X145500000Y-84750000D02*
X146750000Y-84750000D01*
X146750000Y-84750000D02*
X147600000Y-83900000D01*
X147600000Y-83900000D02*
X148200000Y-83300000D01*
X148200000Y-83300000D02*
X148500000Y-83300000D01*
X148500000Y-83300000D02*
X150000000Y-84500000D01*
D37*
X115850000Y-76550000D02*
X111850000Y-76550000D01*
X115850000Y-76550000D02*
X111850000Y-76550000D01*
X115850000Y-76550000D02*
X111850000Y-76550000D01*
X115850000Y-76550000D02*
X111850000Y-76550000D01*
X115850000Y-72550000D02*
X111850000Y-72550000D01*
X115850000Y-72550000D02*
X111850000Y-72550000D01*
X115850000Y-72550000D02*
X111850000Y-72550000D01*
X115850000Y-72550000D02*
X111850000Y-72550000D01*
X123325000Y-74475000D02*
X123325000Y-76475000D01*
X121325000Y-74475000D02*
X123325000Y-74475000D01*
X123325000Y-74475000D02*
X125325000Y-74475000D01*
X121325000Y-74475000D02*
X125325000Y-74475000D01*
X121325000Y-74475000D02*
X125325000Y-74475000D01*
X121325000Y-74475000D02*
X125325000Y-74475000D01*
X121325000Y-76475000D02*
X123325000Y-76475000D01*
X123325000Y-76475000D02*
X125325000Y-76475000D01*
X121325000Y-76475000D02*
X125325000Y-76475000D01*
X121325000Y-76475000D02*
X125325000Y-76475000D01*
X121325000Y-76475000D02*
X125325000Y-76475000D01*
X123325000Y-70475000D02*
X123325000Y-72475000D01*
X121325000Y-70475000D02*
X123325000Y-70475000D01*
X123325000Y-70475000D02*
X125325000Y-70475000D01*
X121325000Y-70475000D02*
X125325000Y-70475000D01*
X121325000Y-70475000D02*
X125325000Y-70475000D01*
X121325000Y-70475000D02*
X125325000Y-70475000D01*
X121325000Y-72475000D02*
X123325000Y-72475000D01*
X123325000Y-72475000D02*
X125325000Y-72475000D01*
X121325000Y-72475000D02*
X125325000Y-72475000D01*
X121325000Y-72475000D02*
X125325000Y-72475000D01*
X121325000Y-72475000D02*
X125325000Y-72475000D01*
X163925000Y-81625000D02*
X164025000Y-81625000D01*
X162700000Y-75200000D02*
X159450000Y-75200000D01*
X165200000Y-77700000D02*
X162700000Y-75200000D01*
X165200000Y-80450000D02*
X165200000Y-77700000D01*
X164025000Y-81625000D02*
X165200000Y-80450000D01*
X163950000Y-81700000D02*
X163950000Y-81650000D01*
X163950000Y-81650000D02*
X163925000Y-81625000D01*
X161225000Y-76825000D02*
X158325000Y-76825000D01*
X164025000Y-79625000D02*
X161225000Y-76825000D01*
X158325000Y-76825000D02*
X157325000Y-75825000D01*
X163950000Y-79625000D02*
X164025000Y-79625000D01*
D35*
X164025000Y-79625000D02*
X163975000Y-79575000D01*
X163975000Y-79575000D02*
X164025000Y-79625000D01*
D37*
X147905000Y-70760000D02*
X147905000Y-72905000D01*
X150000000Y-75000000D02*
X151500000Y-75000000D01*
X147905000Y-72905000D02*
X150000000Y-75000000D01*
X146635000Y-70760000D02*
X146635000Y-69615000D01*
X150750000Y-73750000D02*
X151500000Y-73000000D01*
X150239952Y-73750000D02*
X150750000Y-73750000D01*
X149250000Y-72760048D02*
X150239952Y-73750000D01*
X149250000Y-69500000D02*
X149250000Y-72760048D01*
X149000000Y-69250000D02*
X149250000Y-69500000D01*
X147000000Y-69250000D02*
X149000000Y-69250000D01*
X146635000Y-69615000D02*
X147000000Y-69250000D01*
D35*
X151500000Y-73250000D02*
X151500000Y-73000000D01*
D37*
X111850000Y-74550000D02*
X115850000Y-74550000D01*
X115850000Y-70550000D02*
X111850000Y-70550000D01*
X146635000Y-76240000D02*
X146635000Y-77215000D01*
X146300000Y-80250000D02*
X145750000Y-80250000D01*
X146500000Y-80050000D02*
X146300000Y-80250000D01*
X146500000Y-77350000D02*
X146500000Y-80050000D01*
X146635000Y-77215000D02*
X146500000Y-77350000D01*
X149250000Y-88750000D02*
X151750000Y-88750000D01*
X144095000Y-72405000D02*
X144095000Y-70760000D01*
X143750000Y-72750000D02*
X144095000Y-72405000D01*
M02*
