G04 #@! TF.FileFunction,Soldermask,Top*
%FSLAX46Y46*%
G04 Gerber Fmt 4.6, Leading zero omitted, Abs format (unit mm)*
G04 Created by KiCad (PCBNEW 4.0.0-rc2-stable) date 2016-09-06 13:17:37*
%MOMM*%
G01*
G04 APERTURE LIST*
%ADD10C,0.100000*%
%ADD11R,1.900000X1.800000*%
%ADD12R,2.400000X2.700000*%
%ADD13R,0.950000X1.000000*%
%ADD14R,0.700000X1.100000*%
%ADD15R,1.100000X0.700000*%
%ADD16R,1.200000X1.450000*%
%ADD17R,1.450000X1.200000*%
%ADD18C,1.500000*%
%ADD19C,1.300000*%
%ADD20R,1.200000X0.950000*%
%ADD21R,3.200000X3.200000*%
%ADD22R,1.350000X0.900000*%
%ADD23R,3.300000X4.400000*%
%ADD24R,1.700000X4.900000*%
%ADD25R,0.900000X1.350000*%
%ADD26R,4.400000X3.300000*%
%ADD27R,4.900000X1.700000*%
%ADD28R,0.800000X1.100000*%
%ADD29R,0.800000X1.720000*%
%ADD30R,1.700000X2.700000*%
%ADD31R,1.600000X2.300000*%
%ADD32R,0.900000X1.500000*%
%ADD33C,0.254000*%
G04 APERTURE END LIST*
D10*
D11*
X110350000Y-82750000D03*
X117650000Y-82750000D03*
D12*
X115950000Y-86300000D03*
X112050000Y-86300000D03*
D10*
G36*
X157301992Y-84194759D02*
X156630241Y-83523008D01*
X157337348Y-82815901D01*
X158009099Y-83487652D01*
X157301992Y-84194759D01*
X157301992Y-84194759D01*
G37*
G36*
X158362652Y-83134099D02*
X157690901Y-82462348D01*
X158398008Y-81755241D01*
X159069759Y-82426992D01*
X158362652Y-83134099D01*
X158362652Y-83134099D01*
G37*
D13*
X121000000Y-86250000D03*
X121000000Y-84750000D03*
D14*
X144250000Y-80250000D03*
X145750000Y-80250000D03*
D15*
X149250000Y-90250000D03*
X149250000Y-88750000D03*
D16*
X145500000Y-78250000D03*
X147500000Y-78250000D03*
D17*
X142500000Y-74250000D03*
X142500000Y-76250000D03*
D10*
G36*
X115250000Y-77150000D02*
X115250000Y-75950000D01*
X116450000Y-75950000D01*
X116450000Y-77150000D01*
X115250000Y-77150000D01*
X115250000Y-77150000D01*
G37*
G36*
X115250000Y-73150000D02*
X115250000Y-71950000D01*
X116450000Y-71950000D01*
X116450000Y-73150000D01*
X115250000Y-73150000D01*
X115250000Y-73150000D01*
G37*
G36*
X111250000Y-77150000D02*
X111250000Y-75950000D01*
X112450000Y-75950000D01*
X112450000Y-77150000D01*
X111250000Y-77150000D01*
X111250000Y-77150000D01*
G37*
G36*
X111250000Y-73150000D02*
X111250000Y-71950000D01*
X112450000Y-71950000D01*
X112450000Y-73150000D01*
X111250000Y-73150000D01*
X111250000Y-73150000D01*
G37*
D18*
X162725000Y-86975000D03*
D19*
X164500000Y-88750000D03*
D18*
X114000000Y-84050000D03*
D20*
X111850000Y-78175000D03*
X131500000Y-71375000D03*
X111850000Y-68925000D03*
X151500000Y-80625000D03*
X115850000Y-68925000D03*
X125325000Y-78100000D03*
X151500000Y-71375000D03*
X115850000Y-78175000D03*
X121325000Y-78100000D03*
D19*
X114000000Y-81550000D03*
D21*
X144500000Y-92500000D03*
X133250000Y-90000000D03*
X150000000Y-84500000D03*
D10*
G36*
X150900000Y-75600000D02*
X150900000Y-74400000D01*
X152100000Y-74400000D01*
X152100000Y-75600000D01*
X150900000Y-75600000D01*
X150900000Y-75600000D01*
G37*
G36*
X150900000Y-77600000D02*
X150900000Y-76400000D01*
X152100000Y-76400000D01*
X152100000Y-77600000D01*
X150900000Y-77600000D01*
X150900000Y-77600000D01*
G37*
G36*
X150900000Y-73600000D02*
X150900000Y-72400000D01*
X152100000Y-72400000D01*
X152100000Y-73600000D01*
X150900000Y-73600000D01*
X150900000Y-73600000D01*
G37*
G36*
X150900000Y-79600000D02*
X150900000Y-78400000D01*
X152100000Y-78400000D01*
X152100000Y-79600000D01*
X150900000Y-79600000D01*
X150900000Y-79600000D01*
G37*
G36*
X130900000Y-79600000D02*
X130900000Y-78400000D01*
X132100000Y-78400000D01*
X132100000Y-79600000D01*
X130900000Y-79600000D01*
X130900000Y-79600000D01*
G37*
G36*
X130900000Y-77600000D02*
X130900000Y-76400000D01*
X132100000Y-76400000D01*
X132100000Y-77600000D01*
X130900000Y-77600000D01*
X130900000Y-77600000D01*
G37*
G36*
X130900000Y-75600000D02*
X130900000Y-74400000D01*
X132100000Y-74400000D01*
X132100000Y-75600000D01*
X130900000Y-75600000D01*
X130900000Y-75600000D01*
G37*
G36*
X130900000Y-73600000D02*
X130900000Y-72400000D01*
X132100000Y-72400000D01*
X132100000Y-73600000D01*
X130900000Y-73600000D01*
X130900000Y-73600000D01*
G37*
G36*
X115250000Y-75150000D02*
X115250000Y-73950000D01*
X116450000Y-73950000D01*
X116450000Y-75150000D01*
X115250000Y-75150000D01*
X115250000Y-75150000D01*
G37*
G36*
X115250000Y-77150000D02*
X115250000Y-75950000D01*
X116450000Y-75950000D01*
X116450000Y-77150000D01*
X115250000Y-77150000D01*
X115250000Y-77150000D01*
G37*
G36*
X111250000Y-71150000D02*
X111250000Y-69950000D01*
X112450000Y-69950000D01*
X112450000Y-71150000D01*
X111250000Y-71150000D01*
X111250000Y-71150000D01*
G37*
G36*
X115250000Y-73150000D02*
X115250000Y-71950000D01*
X116450000Y-71950000D01*
X116450000Y-73150000D01*
X115250000Y-73150000D01*
X115250000Y-73150000D01*
G37*
G36*
X111250000Y-75150000D02*
X111250000Y-73950000D01*
X112450000Y-73950000D01*
X112450000Y-75150000D01*
X111250000Y-75150000D01*
X111250000Y-75150000D01*
G37*
G36*
X111250000Y-77150000D02*
X111250000Y-75950000D01*
X112450000Y-75950000D01*
X112450000Y-77150000D01*
X111250000Y-77150000D01*
X111250000Y-77150000D01*
G37*
G36*
X115250000Y-71150000D02*
X115250000Y-69950000D01*
X116450000Y-69950000D01*
X116450000Y-71150000D01*
X115250000Y-71150000D01*
X115250000Y-71150000D01*
G37*
G36*
X111250000Y-73150000D02*
X111250000Y-71950000D01*
X112450000Y-71950000D01*
X112450000Y-73150000D01*
X111250000Y-73150000D01*
X111250000Y-73150000D01*
G37*
G36*
X121925000Y-75875000D02*
X121925000Y-77075000D01*
X120725000Y-77075000D01*
X120725000Y-75875000D01*
X121925000Y-75875000D01*
X121925000Y-75875000D01*
G37*
G36*
X121925000Y-73875000D02*
X121925000Y-75075000D01*
X120725000Y-75075000D01*
X120725000Y-73875000D01*
X121925000Y-73875000D01*
X121925000Y-73875000D01*
G37*
G36*
X121925000Y-69875000D02*
X121925000Y-71075000D01*
X120725000Y-71075000D01*
X120725000Y-69875000D01*
X121925000Y-69875000D01*
X121925000Y-69875000D01*
G37*
G36*
X125925000Y-71875000D02*
X125925000Y-73075000D01*
X124725000Y-73075000D01*
X124725000Y-71875000D01*
X125925000Y-71875000D01*
X125925000Y-71875000D01*
G37*
G36*
X125925000Y-73875000D02*
X125925000Y-75075000D01*
X124725000Y-75075000D01*
X124725000Y-73875000D01*
X125925000Y-73875000D01*
X125925000Y-73875000D01*
G37*
G36*
X125925000Y-75875000D02*
X125925000Y-77075000D01*
X124725000Y-77075000D01*
X124725000Y-75875000D01*
X125925000Y-75875000D01*
X125925000Y-75875000D01*
G37*
G36*
X121925000Y-71875000D02*
X121925000Y-73075000D01*
X120725000Y-73075000D01*
X120725000Y-71875000D01*
X121925000Y-71875000D01*
X121925000Y-71875000D01*
G37*
G36*
X125925000Y-69875000D02*
X125925000Y-71075000D01*
X124725000Y-71075000D01*
X124725000Y-69875000D01*
X125925000Y-69875000D01*
X125925000Y-69875000D01*
G37*
D22*
X141975000Y-81615000D03*
X141975000Y-82885000D03*
X141975000Y-80345000D03*
X141975000Y-84155000D03*
D23*
X138800000Y-82250000D03*
D24*
X136500000Y-82250000D03*
D25*
X146135000Y-90225000D03*
X144865000Y-90225000D03*
X147405000Y-90225000D03*
X143595000Y-90225000D03*
D26*
X145500000Y-87050000D03*
D27*
X145500000Y-84750000D03*
D10*
G36*
X166266295Y-84010912D02*
X167539088Y-85283705D01*
X166195585Y-86627208D01*
X164922792Y-85354415D01*
X166266295Y-84010912D01*
X166266295Y-84010912D01*
G37*
G36*
X161104415Y-89172792D02*
X162377208Y-90445585D01*
X161033705Y-91789088D01*
X159760912Y-90516295D01*
X161104415Y-89172792D01*
X161104415Y-89172792D01*
G37*
G36*
X159654847Y-84965507D02*
X161564035Y-86874695D01*
X159866979Y-88571751D01*
X157957791Y-86662563D01*
X159654847Y-84965507D01*
X159654847Y-84965507D01*
G37*
G36*
X162412563Y-82207791D02*
X164321751Y-84116979D01*
X162624695Y-85814035D01*
X160715507Y-83904847D01*
X162412563Y-82207791D01*
X162412563Y-82207791D01*
G37*
D28*
X136500000Y-76950000D03*
X137450000Y-76950000D03*
X135550000Y-76950000D03*
X135550000Y-74550000D03*
X137500000Y-74550000D03*
D29*
X144095000Y-76240000D03*
X145365000Y-76240000D03*
X146635000Y-76240000D03*
X147905000Y-76240000D03*
X147905000Y-70760000D03*
X146635000Y-70760000D03*
X145365000Y-70760000D03*
X144095000Y-70760000D03*
D10*
G36*
X115250000Y-77150000D02*
X115250000Y-75950000D01*
X116450000Y-75950000D01*
X116450000Y-77150000D01*
X115250000Y-77150000D01*
X115250000Y-77150000D01*
G37*
G36*
X115250000Y-73150000D02*
X115250000Y-71950000D01*
X116450000Y-71950000D01*
X116450000Y-73150000D01*
X115250000Y-73150000D01*
X115250000Y-73150000D01*
G37*
G36*
X111250000Y-77150000D02*
X111250000Y-75950000D01*
X112450000Y-75950000D01*
X112450000Y-77150000D01*
X111250000Y-77150000D01*
X111250000Y-77150000D01*
G37*
G36*
X111250000Y-73150000D02*
X111250000Y-71950000D01*
X112450000Y-71950000D01*
X112450000Y-73150000D01*
X111250000Y-73150000D01*
X111250000Y-73150000D01*
G37*
D30*
X137700000Y-94000000D03*
X142300000Y-94000000D03*
D31*
X141850000Y-86500000D03*
X136650000Y-86500000D03*
X141100000Y-90000000D03*
X135900000Y-90000000D03*
D10*
G36*
X115250000Y-77150000D02*
X115250000Y-75950000D01*
X116450000Y-75950000D01*
X116450000Y-77150000D01*
X115250000Y-77150000D01*
X115250000Y-77150000D01*
G37*
G36*
X115250000Y-73150000D02*
X115250000Y-71950000D01*
X116450000Y-71950000D01*
X116450000Y-73150000D01*
X115250000Y-73150000D01*
X115250000Y-73150000D01*
G37*
G36*
X111250000Y-77150000D02*
X111250000Y-75950000D01*
X112450000Y-75950000D01*
X112450000Y-77150000D01*
X111250000Y-77150000D01*
X111250000Y-77150000D01*
G37*
G36*
X111250000Y-73150000D02*
X111250000Y-71950000D01*
X112450000Y-71950000D01*
X112450000Y-73150000D01*
X111250000Y-73150000D01*
X111250000Y-73150000D01*
G37*
D32*
X121700000Y-82750000D03*
X119800000Y-82750000D03*
D10*
G36*
X158929721Y-81240381D02*
X159990381Y-80179721D01*
X160626777Y-80816117D01*
X159566117Y-81876777D01*
X158929721Y-81240381D01*
X158929721Y-81240381D01*
G37*
G36*
X160273223Y-82583883D02*
X161333883Y-81523223D01*
X161970279Y-82159619D01*
X160909619Y-83220279D01*
X160273223Y-82583883D01*
X160273223Y-82583883D01*
G37*
D33*
G36*
X137173000Y-80100000D02*
X137183006Y-80149410D01*
X137211447Y-80191035D01*
X137253841Y-80218315D01*
X137300000Y-80227000D01*
X140273000Y-80227000D01*
X140273000Y-84273000D01*
X137400000Y-84273000D01*
X137350590Y-84283006D01*
X137308965Y-84311447D01*
X137281685Y-84353841D01*
X137273000Y-84400000D01*
X137273000Y-87599778D01*
X136557349Y-88363139D01*
X136530855Y-88406029D01*
X136523000Y-88450000D01*
X136523000Y-91050000D01*
X136533006Y-91099410D01*
X136561681Y-91141262D01*
X138073000Y-92603829D01*
X138073000Y-92700000D01*
X138083006Y-92749410D01*
X138111447Y-92791035D01*
X138153841Y-92818315D01*
X138200000Y-92827000D01*
X138373000Y-92827000D01*
X138373000Y-95173000D01*
X137027000Y-95173000D01*
X137027000Y-92900000D01*
X137016994Y-92850590D01*
X136989803Y-92810197D01*
X135639803Y-91460197D01*
X135597789Y-91432334D01*
X135550000Y-91423000D01*
X131777000Y-91423000D01*
X131777000Y-88577000D01*
X135000000Y-88577000D01*
X135049410Y-88566994D01*
X135089803Y-88539803D01*
X135989803Y-87639803D01*
X136017666Y-87597789D01*
X136027000Y-87550000D01*
X136027000Y-84950000D01*
X136016994Y-84900590D01*
X135999170Y-84870664D01*
X135827000Y-84655452D01*
X135827000Y-79977000D01*
X137173000Y-79977000D01*
X137173000Y-80100000D01*
X137173000Y-80100000D01*
G37*
X137173000Y-80100000D02*
X137183006Y-80149410D01*
X137211447Y-80191035D01*
X137253841Y-80218315D01*
X137300000Y-80227000D01*
X140273000Y-80227000D01*
X140273000Y-84273000D01*
X137400000Y-84273000D01*
X137350590Y-84283006D01*
X137308965Y-84311447D01*
X137281685Y-84353841D01*
X137273000Y-84400000D01*
X137273000Y-87599778D01*
X136557349Y-88363139D01*
X136530855Y-88406029D01*
X136523000Y-88450000D01*
X136523000Y-91050000D01*
X136533006Y-91099410D01*
X136561681Y-91141262D01*
X138073000Y-92603829D01*
X138073000Y-92700000D01*
X138083006Y-92749410D01*
X138111447Y-92791035D01*
X138153841Y-92818315D01*
X138200000Y-92827000D01*
X138373000Y-92827000D01*
X138373000Y-95173000D01*
X137027000Y-95173000D01*
X137027000Y-92900000D01*
X137016994Y-92850590D01*
X136989803Y-92810197D01*
X135639803Y-91460197D01*
X135597789Y-91432334D01*
X135550000Y-91423000D01*
X131777000Y-91423000D01*
X131777000Y-88577000D01*
X135000000Y-88577000D01*
X135049410Y-88566994D01*
X135089803Y-88539803D01*
X135989803Y-87639803D01*
X136017666Y-87597789D01*
X136027000Y-87550000D01*
X136027000Y-84950000D01*
X136016994Y-84900590D01*
X135999170Y-84870664D01*
X135827000Y-84655452D01*
X135827000Y-79977000D01*
X137173000Y-79977000D01*
X137173000Y-80100000D01*
G36*
X146423000Y-90751857D02*
X146408965Y-90761447D01*
X146381685Y-90803841D01*
X146373000Y-90850000D01*
X146373000Y-90901265D01*
X145955602Y-91365041D01*
X145929985Y-91408461D01*
X145923000Y-91450000D01*
X145923000Y-94095805D01*
X144798970Y-95173000D01*
X141627000Y-95173000D01*
X141627000Y-92827000D01*
X142950000Y-92827000D01*
X142999410Y-92816994D01*
X143041035Y-92788553D01*
X143068315Y-92746159D01*
X143077000Y-92700000D01*
X143077000Y-91077000D01*
X143200000Y-91077000D01*
X143249410Y-91066994D01*
X143291035Y-91038553D01*
X143318315Y-90996159D01*
X143327000Y-90950000D01*
X143327000Y-89727000D01*
X146423000Y-89727000D01*
X146423000Y-90751857D01*
X146423000Y-90751857D01*
G37*
X146423000Y-90751857D02*
X146408965Y-90761447D01*
X146381685Y-90803841D01*
X146373000Y-90850000D01*
X146373000Y-90901265D01*
X145955602Y-91365041D01*
X145929985Y-91408461D01*
X145923000Y-91450000D01*
X145923000Y-94095805D01*
X144798970Y-95173000D01*
X141627000Y-95173000D01*
X141627000Y-92827000D01*
X142950000Y-92827000D01*
X142999410Y-92816994D01*
X143041035Y-92788553D01*
X143068315Y-92746159D01*
X143077000Y-92700000D01*
X143077000Y-91077000D01*
X143200000Y-91077000D01*
X143249410Y-91066994D01*
X143291035Y-91038553D01*
X143318315Y-90996159D01*
X143327000Y-90950000D01*
X143327000Y-89727000D01*
X146423000Y-89727000D01*
X146423000Y-90751857D01*
G36*
X145557223Y-83586726D02*
X145598274Y-83615989D01*
X145650000Y-83627000D01*
X147500000Y-83627000D01*
X147549410Y-83616994D01*
X147589803Y-83589803D01*
X148102606Y-83077000D01*
X151423000Y-83077000D01*
X151423000Y-85923000D01*
X147750000Y-85923000D01*
X147700590Y-85933006D01*
X147660197Y-85960197D01*
X147560197Y-86060197D01*
X147532334Y-86102211D01*
X147523000Y-86150000D01*
X147523000Y-88523000D01*
X143477000Y-88523000D01*
X143477000Y-87600000D01*
X143466994Y-87550590D01*
X143438553Y-87508965D01*
X143396159Y-87481685D01*
X143350000Y-87473000D01*
X143200000Y-87473000D01*
X143150590Y-87483006D01*
X143110197Y-87510197D01*
X141760197Y-88860197D01*
X141732334Y-88902211D01*
X141723000Y-88950000D01*
X141723000Y-90973000D01*
X140477000Y-90973000D01*
X140477000Y-88202606D01*
X141189803Y-87489803D01*
X141217666Y-87447789D01*
X141227000Y-87400000D01*
X141227000Y-85527000D01*
X141350000Y-85527000D01*
X141399410Y-85516994D01*
X141441035Y-85488553D01*
X141468315Y-85446159D01*
X141477000Y-85400000D01*
X141477000Y-81327000D01*
X143444870Y-81327000D01*
X145557223Y-83586726D01*
X145557223Y-83586726D01*
G37*
X145557223Y-83586726D02*
X145598274Y-83615989D01*
X145650000Y-83627000D01*
X147500000Y-83627000D01*
X147549410Y-83616994D01*
X147589803Y-83589803D01*
X148102606Y-83077000D01*
X151423000Y-83077000D01*
X151423000Y-85923000D01*
X147750000Y-85923000D01*
X147700590Y-85933006D01*
X147660197Y-85960197D01*
X147560197Y-86060197D01*
X147532334Y-86102211D01*
X147523000Y-86150000D01*
X147523000Y-88523000D01*
X143477000Y-88523000D01*
X143477000Y-87600000D01*
X143466994Y-87550590D01*
X143438553Y-87508965D01*
X143396159Y-87481685D01*
X143350000Y-87473000D01*
X143200000Y-87473000D01*
X143150590Y-87483006D01*
X143110197Y-87510197D01*
X141760197Y-88860197D01*
X141732334Y-88902211D01*
X141723000Y-88950000D01*
X141723000Y-90973000D01*
X140477000Y-90973000D01*
X140477000Y-88202606D01*
X141189803Y-87489803D01*
X141217666Y-87447789D01*
X141227000Y-87400000D01*
X141227000Y-85527000D01*
X141350000Y-85527000D01*
X141399410Y-85516994D01*
X141441035Y-85488553D01*
X141468315Y-85446159D01*
X141477000Y-85400000D01*
X141477000Y-81327000D01*
X143444870Y-81327000D01*
X145557223Y-83586726D01*
M02*
