G04 #@! TF.FileFunction,Soldermask,Bot*
%FSLAX46Y46*%
G04 Gerber Fmt 4.6, Leading zero omitted, Abs format (unit mm)*
G04 Created by KiCad (PCBNEW 4.0.0-rc2-stable) date 2016-09-06 13:17:37*
%MOMM*%
G01*
G04 APERTURE LIST*
%ADD10C,0.100000*%
%ADD11R,1.000000X0.950000*%
%ADD12R,2.000000X1.430000*%
%ADD13C,1.500000*%
%ADD14C,1.300000*%
%ADD15R,0.950000X1.200000*%
%ADD16R,0.800000X1.720000*%
%ADD17R,1.200000X1.200000*%
%ADD18R,1.500000X0.900000*%
%ADD19R,0.900000X1.500000*%
G04 APERTURE END LIST*
D10*
D11*
X158650000Y-85400000D03*
X160150000Y-85400000D03*
D12*
X162485000Y-89575000D03*
X159865000Y-89575000D03*
D13*
X162725000Y-86975000D03*
D14*
X164500000Y-88750000D03*
D13*
X114000000Y-84050000D03*
D15*
X156250000Y-93125000D03*
X156250000Y-73125000D03*
X165500000Y-73125000D03*
D14*
X114000000Y-81550000D03*
D16*
X158520000Y-77785000D03*
X159790000Y-77785000D03*
X161060000Y-77785000D03*
X162330000Y-77785000D03*
X162330000Y-83265000D03*
X161060000Y-83265000D03*
X159790000Y-83265000D03*
X158520000Y-83265000D03*
D10*
G36*
X160475000Y-73725000D02*
X159275000Y-73725000D01*
X159275000Y-72525000D01*
X160475000Y-72525000D01*
X160475000Y-73725000D01*
X160475000Y-73725000D01*
G37*
G36*
X162475000Y-73725000D02*
X161275000Y-73725000D01*
X161275000Y-72525000D01*
X162475000Y-72525000D01*
X162475000Y-73725000D01*
X162475000Y-73725000D01*
G37*
G36*
X158475000Y-73725000D02*
X157275000Y-73725000D01*
X157275000Y-72525000D01*
X158475000Y-72525000D01*
X158475000Y-73725000D01*
X158475000Y-73725000D01*
G37*
G36*
X164475000Y-73725000D02*
X163275000Y-73725000D01*
X163275000Y-72525000D01*
X164475000Y-72525000D01*
X164475000Y-73725000D01*
X164475000Y-73725000D01*
G37*
G36*
X162475000Y-93725000D02*
X161275000Y-93725000D01*
X161275000Y-92525000D01*
X162475000Y-92525000D01*
X162475000Y-93725000D01*
X162475000Y-93725000D01*
G37*
G36*
X164475000Y-93725000D02*
X163275000Y-93725000D01*
X163275000Y-92525000D01*
X164475000Y-92525000D01*
X164475000Y-93725000D01*
X164475000Y-93725000D01*
G37*
G36*
X158475000Y-93725000D02*
X157275000Y-93725000D01*
X157275000Y-92525000D01*
X158475000Y-92525000D01*
X158475000Y-93725000D01*
X158475000Y-93725000D01*
G37*
G36*
X160475000Y-93725000D02*
X159275000Y-93725000D01*
X159275000Y-92525000D01*
X160475000Y-92525000D01*
X160475000Y-93725000D01*
X160475000Y-93725000D01*
G37*
D17*
X133350000Y-90400000D03*
X133350000Y-86100000D03*
X135150000Y-90400000D03*
X135150000Y-86100000D03*
D18*
X156825000Y-81575000D03*
X156825000Y-79675000D03*
D19*
X137250000Y-88400000D03*
X139150000Y-88400000D03*
X137250000Y-86100000D03*
X139150000Y-86100000D03*
M02*
