G04 #@! TF.FileFunction,Profile,NP*
%FSLAX46Y46*%
G04 Gerber Fmt 4.6, Leading zero omitted, Abs format (unit mm)*
G04 Created by KiCad (PCBNEW 4.0.0-rc2-stable) date 2016-09-06 13:17:37*
%MOMM*%
G01*
G04 APERTURE LIST*
%ADD10C,0.100000*%
G04 APERTURE END LIST*
D10*
X124625000Y-68475000D02*
X124000000Y-68475000D01*
X123981702Y-68478787D02*
G75*
G02X120825000Y-69225000I-3156702J6303787D01*
G01*
X119825000Y-69975000D02*
X119825000Y-69225000D01*
X119825000Y-69225000D02*
X120825000Y-69225000D01*
X126825000Y-68475000D02*
X124625000Y-68475000D01*
X126825000Y-69225000D02*
X126825000Y-68475000D01*
X126825000Y-69975000D02*
X126825000Y-69225000D01*
X130000000Y-81500000D02*
X130000000Y-81250000D01*
X109000000Y-81500000D02*
X130000000Y-81500000D01*
X109000000Y-81750000D02*
X109000000Y-81500000D01*
X143250000Y-68750000D02*
X152000000Y-68750000D01*
X142250000Y-72500000D02*
X142000000Y-72500000D01*
X142750000Y-69250000D02*
X142750000Y-72000000D01*
X109000000Y-88250000D02*
X109000000Y-82500000D01*
X109000000Y-82500000D02*
X109000000Y-82000000D01*
X109000000Y-82000000D02*
X109000000Y-81750000D01*
X165125000Y-91625000D02*
X165125000Y-89725000D01*
X165875000Y-88975000D02*
X165125000Y-89725000D01*
X165125000Y-91625000D02*
X164375000Y-91625000D01*
X165125000Y-92625000D02*
X164375000Y-92625000D01*
X165125000Y-94625000D02*
X156625000Y-94625000D01*
X130000000Y-81250000D02*
X130000000Y-80750000D01*
X125825000Y-69975000D02*
X126825000Y-69975000D01*
X125825000Y-76975000D02*
X125825000Y-69975000D01*
X126825000Y-76975000D02*
X125825000Y-76975000D01*
X126825000Y-78475000D02*
X126825000Y-76975000D01*
X124625000Y-78475000D02*
X126825000Y-78475000D01*
X122025000Y-78475000D02*
X119825000Y-78475000D01*
X119825000Y-76975000D02*
X119825000Y-78475000D01*
X120825000Y-76975000D02*
X119825000Y-76975000D01*
X120825000Y-69975000D02*
X120825000Y-76975000D01*
X119825000Y-69975000D02*
X120825000Y-69975000D01*
X117350000Y-78550000D02*
X115150000Y-78550000D01*
X117350000Y-77050000D02*
X117350000Y-78550000D01*
X116350000Y-77050000D02*
X117350000Y-77050000D01*
X116350000Y-70050000D02*
X116350000Y-77050000D01*
X111350000Y-77050000D02*
X111350000Y-70050000D01*
X117350000Y-70050000D02*
X116350000Y-70050000D01*
X117350000Y-68550000D02*
X117350000Y-70050000D01*
X115150000Y-68550000D02*
X117350000Y-68550000D01*
X110350000Y-68550000D02*
X112550000Y-68550000D01*
X110350000Y-70050000D02*
X110350000Y-68550000D01*
X111350000Y-70050000D02*
X110350000Y-70050000D01*
X110350000Y-78550000D02*
X112550000Y-78550000D01*
X110350000Y-77050000D02*
X110350000Y-78550000D01*
X111350000Y-77050000D02*
X110350000Y-77050000D01*
X164375000Y-73625000D02*
G75*
G03X163875000Y-74125000I0J-500000D01*
G01*
X163875000Y-74125000D02*
G75*
G03X164375000Y-74625000I500000J0D01*
G01*
X165875000Y-82875000D02*
X165875000Y-74625000D01*
X168925000Y-85925000D02*
X165875000Y-82875000D01*
X168625000Y-86225000D02*
X168925000Y-85925000D01*
X168625000Y-86225000D02*
X165875000Y-88975000D01*
X164375000Y-91625000D02*
G75*
G03X163875000Y-92125000I0J-500000D01*
G01*
X163875000Y-92125000D02*
G75*
G03X164375000Y-92625000I500000J0D01*
G01*
X157875000Y-74125000D02*
G75*
G03X157375000Y-73625000I-500000J0D01*
G01*
X157375000Y-74625000D02*
G75*
G03X157875000Y-74125000I0J500000D01*
G01*
X155625000Y-74625000D02*
X157375000Y-74625000D01*
X157875000Y-92125000D02*
G75*
G03X157375000Y-91625000I-500000J0D01*
G01*
X157375000Y-92625000D02*
G75*
G03X157875000Y-92125000I0J500000D01*
G01*
X155625000Y-91625000D02*
X155625000Y-74625000D01*
X155675000Y-91625000D02*
X155625000Y-91625000D01*
X155875000Y-91625000D02*
X155675000Y-91625000D01*
X133000000Y-81000000D02*
X133000000Y-79500000D01*
X133000000Y-79500000D02*
G75*
G03X132500000Y-79000000I-500000J0D01*
G01*
X132500000Y-81500000D02*
G75*
G03X133000000Y-81000000I0J500000D01*
G01*
X132000000Y-81000000D02*
G75*
G03X132500000Y-81500000I500000J0D01*
G01*
X132500000Y-79000000D02*
G75*
G03X132000000Y-79500000I0J-500000D01*
G01*
X150500000Y-81500000D02*
G75*
G03X151000000Y-81000000I0J500000D01*
G01*
X150000000Y-81000000D02*
G75*
G03X150500000Y-81500000I500000J0D01*
G01*
X151000000Y-79500000D02*
G75*
G03X150500000Y-79000000I-500000J0D01*
G01*
X150500000Y-79000000D02*
G75*
G03X150000000Y-79500000I0J-500000D01*
G01*
X150000000Y-79500000D02*
X150000000Y-81000000D01*
X151000000Y-71000000D02*
G75*
G03X150500000Y-70500000I-500000J0D01*
G01*
X150500000Y-70500000D02*
G75*
G03X150000000Y-71000000I0J-500000D01*
G01*
X150500000Y-73000000D02*
G75*
G03X151000000Y-72500000I0J500000D01*
G01*
X150000000Y-72500000D02*
G75*
G03X150500000Y-73000000I500000J0D01*
G01*
X132500000Y-73000000D02*
G75*
G03X133000000Y-72500000I0J500000D01*
G01*
X132000000Y-72500000D02*
G75*
G03X132500000Y-73000000I500000J0D01*
G01*
X137000000Y-70750000D02*
X133000000Y-70750000D01*
X110500000Y-89750000D02*
X120750000Y-89750000D01*
X123750000Y-86750000D02*
G75*
G03X122250000Y-88250000I0J-1500000D01*
G01*
X155625000Y-73625000D02*
X155925000Y-73625000D01*
X155625000Y-73625000D02*
X155625000Y-72625000D01*
X155625000Y-92625000D02*
X155925000Y-92625000D01*
X155625000Y-93625000D02*
X155625000Y-92625000D01*
X133000000Y-71000000D02*
X133000000Y-70750000D01*
X132000000Y-70750000D02*
X132000000Y-71000000D01*
X131000000Y-70750000D02*
X132000000Y-70750000D01*
X130000000Y-80750000D02*
X130000000Y-71750000D01*
X126500000Y-84500000D02*
X126500000Y-84000000D01*
X129000000Y-84500000D02*
X129000000Y-84000000D01*
X128250000Y-92500000D02*
X128250000Y-89000000D01*
X135500000Y-93750000D02*
X135500000Y-93500000D01*
X137500000Y-72000000D02*
X137500000Y-71750000D01*
X127750000Y-82750000D02*
G75*
G03X126500000Y-84000000I0J-1250000D01*
G01*
X129000000Y-84000000D02*
G75*
G03X127750000Y-82750000I-1250000J0D01*
G01*
X127750000Y-85750000D02*
G75*
G03X129000000Y-84500000I0J1250000D01*
G01*
X126500000Y-84500000D02*
G75*
G03X127750000Y-85750000I1250000J0D01*
G01*
X165875000Y-71625000D02*
X156625000Y-71625000D01*
X137500000Y-71750000D02*
X137500000Y-71250000D01*
X153000000Y-90500000D02*
X153000000Y-90000000D01*
X135500000Y-96500000D02*
X135500000Y-96000000D01*
X152000000Y-91500000D02*
X151500000Y-91500000D01*
X153000000Y-70000000D02*
X153000000Y-69750000D01*
X136500000Y-97500000D02*
X146500000Y-97500000D01*
X109000000Y-88250000D02*
G75*
G03X110500000Y-89750000I1500000J0D01*
G01*
X120750000Y-89750000D02*
G75*
G03X122250000Y-88250000I0J1500000D01*
G01*
X128250000Y-89000000D02*
X128250000Y-88500000D01*
X129750000Y-93500000D02*
X129250000Y-93500000D01*
X128250000Y-92500000D02*
G75*
G03X129250000Y-93500000I1000000J0D01*
G01*
X135500000Y-93500000D02*
X129750000Y-93500000D01*
X126500000Y-86750000D02*
X123750000Y-86750000D01*
X128250000Y-88500000D02*
G75*
G03X126500000Y-86750000I-1750000J0D01*
G01*
X135500000Y-94000000D02*
X135500000Y-93750000D01*
X135500000Y-96000000D02*
X135500000Y-94000000D01*
X135500000Y-96500000D02*
G75*
G03X136500000Y-97500000I1000000J0D01*
G01*
X157375000Y-92625000D02*
X155875000Y-92625000D01*
X157375000Y-91625000D02*
X155875000Y-91625000D01*
X155875000Y-73625000D02*
X157375000Y-73625000D01*
X165125000Y-94625000D02*
X165125000Y-92625000D01*
X155625000Y-93625000D02*
G75*
G03X156625000Y-94625000I1000000J0D01*
G01*
X156625000Y-71625000D02*
G75*
G03X155625000Y-72625000I0J-1000000D01*
G01*
X165875000Y-71625000D02*
X165875000Y-73625000D01*
X164375000Y-73625000D02*
X165875000Y-73625000D01*
X165875000Y-74625000D02*
X164375000Y-74625000D01*
X146500000Y-97500000D02*
G75*
G03X147500000Y-96500000I0J1000000D01*
G01*
X147500000Y-96500000D02*
X147500000Y-95500000D01*
X151500000Y-91500000D02*
G75*
G03X147500000Y-95500000I0J-4000000D01*
G01*
X152000000Y-91500000D02*
G75*
G03X153000000Y-90500000I0J1000000D01*
G01*
X150000000Y-71000000D02*
X150000000Y-72500000D01*
X151000000Y-72500000D02*
X151000000Y-71000000D01*
X151000000Y-81000000D02*
X151000000Y-79500000D01*
X132000000Y-79500000D02*
X132000000Y-81000000D01*
X133000000Y-71000000D02*
X133000000Y-72500000D01*
X132000000Y-72500000D02*
X132000000Y-71000000D01*
X131000000Y-70750000D02*
G75*
G03X130000000Y-71750000I0J-1000000D01*
G01*
X137500000Y-71250000D02*
G75*
G03X137000000Y-70750000I-500000J0D01*
G01*
X137500000Y-72000000D02*
G75*
G03X138000000Y-72500000I500000J0D01*
G01*
X142250000Y-72500000D02*
G75*
G03X142750000Y-72000000I0J500000D01*
G01*
X143250000Y-68750000D02*
G75*
G03X142750000Y-69250000I0J-500000D01*
G01*
X153000000Y-69750000D02*
G75*
G03X152000000Y-68750000I-1000000J0D01*
G01*
X138000000Y-72500000D02*
X142000000Y-72500000D01*
X153000000Y-72000000D02*
X153000000Y-70000000D01*
X153000000Y-90000000D02*
X153000000Y-72000000D01*
X115150000Y-78550000D02*
G75*
G03X112550000Y-78550000I-1300000J-1300000D01*
G01*
X124625000Y-78475000D02*
G75*
G03X122025000Y-78475000I-1300000J-1300000D01*
G01*
X112550000Y-68550000D02*
G75*
G03X115150000Y-68550000I1300000J1300000D01*
G01*
M02*
